<svg xmlns="http://www.w3.org/2000/svg" viewBox="0 0 640 420"><rect width="640" height="420" fill="#e9ebcf"/><circle cx="320" cy="270" r="150" fill="#fffaf0" stroke="#173f2c" stroke-width="12"/><path d="M180 270q140 170 280 0" fill="#d39a2c"/><g stroke="#173f2c" stroke-width="8" stroke-linecap="round"><path d="m235 285 20-145m50 145 0-180m60 180 30-155m25 170 65-125"/></g><g fill="#71a64e"><ellipse cx="225" cy="160" rx="55" ry="22" transform="rotate(-25 225 160)"/><ellipse cx="270" cy="130" rx="52" ry="23" transform="rotate(30 270 130)"/><ellipse cx="350" cy="135" rx="58" ry="24" transform="rotate(-30 350 135)"/><ellipse cx="410" cy="155" rx="55" ry="23" transform="rotate(25 410 155)"/></g><g fill="#b83a71"><circle cx="255" cy="140" r="16"/><circle cx="395" cy="130" r="17"/></g></svg>
