<svg xmlns="http://www.w3.org/2000/svg" viewBox="0 0 800 560"><rect width="800" height="560" fill="#163d2b"/><g stroke="#eff1d8" stroke-width="8" stroke-linecap="round"><path d="M90 560Q100 310 190 180M205 560Q220 280 330 130M360 560Q370 250 470 165M520 560Q520 280 620 115M670 560Q660 330 730 200"/></g><g fill="#82ad54"><ellipse cx="145" cy="270" rx="85" ry="35" transform="rotate(-34 145 270)"/><ellipse cx="225" cy="230" rx="80" ry="34" transform="rotate(22 225 230)"/><ellipse cx="292" cy="220" rx="95" ry="38" transform="rotate(-38 292 220)"/><ellipse cx="390" cy="270" rx="90" ry="36" transform="rotate(30 390 270)"/><ellipse cx="515" cy="250" rx="100" ry="40" transform="rotate(-32 515 250)"/><ellipse cx="630" cy="220" rx="96" ry="40" transform="rotate(28 630 220)"/><ellipse cx="700" cy="320" rx="85" ry="34" transform="rotate(-25 700 320)"/></g><g fill="#b93b73"><circle cx="185" cy="180" r="26"/><circle cx="332" cy="130" r="25"/><circle cx="470" cy="165" r="27"/><circle cx="620" cy="115" r="28"/><circle cx="730" cy="200" r="25"/></g></svg>
